<?xml version="1.0" encoding="UTF-8" standalone="no"?> <svg xmlns="http://www.w3.org/2000/svg" xmlns:xlink="http://www.w3.org/1999/xlink" xmlns:serif="http://www.serif.com/" width="1123" height="590" viewBox="0 0 1123 590" version="1.1" xml:space="preserve" style="fill-rule:evenodd;clip-rule:evenodd;stroke-linejoin:round;stroke-miterlimit:2;"><g transform="matrix(1,0,0,1,-1300,0)"><g id="preinstalled-fonts-by-os" transform="matrix(1.40375,0,0,1.22917,106.813,0)"><rect x="850" y="0" width="800" height="480" style="fill:white;"></rect><g><g transform="matrix(0.995139,0,0,1.00213,454.386,3.99776)"><path d="M1190,21.989C1190,14.82 1184.87,9 1178.55,9L420.454,9C414.132,9 409,14.82 409,21.989L409,449.011C409,456.18 414.132,462 420.454,462L1178.55,462C1184.87,462 1190,456.18 1190,449.011L1190,21.989Z" style="fill:rgb(239,239,239);"></path></g><g transform="matrix(1.07584,0,0,1.22864,428.851,-54.3059)"><g transform="matrix(46.3514,0,0,46.3514,503.281,211.261)"><path d="M0.427,-0.76C0.214,-0.76 0.07,-0.614 0.07,-0.37C0.07,-0.132 0.198,0.01 0.423,0.01C0.636,0.01 0.78,-0.136 0.78,-0.38C0.78,-0.618 0.652,-0.76 0.427,-0.76ZM0.434,-0.056C0.254,-0.056 0.155,-0.158 0.155,-0.372C0.155,-0.57 0.254,-0.694 0.416,-0.694C0.596,-0.694 0.695,-0.592 0.695,-0.378C0.695,-0.18 0.596,-0.056 0.434,-0.056Z" style="fill:rgb(53,53,53);fill-rule:nonzero;"></path></g><g transform="matrix(46.3514,0,0,46.3514,543.607,211.261)"><path d="M0.431,-0.558L0.491,-0.558L0.491,-0.729C0.458,-0.742 0.394,-0.76 0.308,-0.76C0.171,-0.76 0.085,-0.678 0.085,-0.555C0.085,-0.426 0.18,-0.385 0.273,-0.349C0.394,-0.302 0.45,-0.27 0.45,-0.185C0.45,-0.109 0.4,-0.055 0.284,-0.055C0.239,-0.055 0.188,-0.064 0.141,-0.081L0.129,-0.219L0.069,-0.219L0.069,-0.034C0.126,-0.008 0.194,0.01 0.286,0.01C0.424,0.01 0.534,-0.063 0.534,-0.196C0.534,-0.323 0.454,-0.365 0.313,-0.421C0.21,-0.462 0.166,-0.492 0.166,-0.571C0.166,-0.632 0.2,-0.696 0.304,-0.696C0.349,-0.696 0.388,-0.688 0.421,-0.675L0.431,-0.558Z" style="fill:rgb(53,53,53);fill-rule:nonzero;"></path></g><g transform="matrix(46.3514,0,0,46.3514,572.391,211.261)"><path d="M0.794,-0.441L0.91,-0.437L0.914,-0.441L0.91,-0.518L0.91,-0.579L0.913,-0.655L0.909,-0.659L0.793,-0.655L0.751,-0.655L0.751,-0.74L0.812,-0.74L0.962,-0.736L0.962,-0.794L0.812,-0.79L0.489,-0.79L0.339,-0.794L0.339,-0.736L0.489,-0.74L0.543,-0.74L0.543,-0.655L0.508,-0.655L0.392,-0.659L0.388,-0.655L0.392,-0.579L0.392,-0.517L0.388,-0.441L0.393,-0.437L0.508,-0.441L0.794,-0.441ZM0.543,-0.489L0.446,-0.489L0.446,-0.608L0.543,-0.608L0.543,-0.489ZM0.751,-0.489L0.751,-0.608L0.855,-0.608L0.855,-0.489L0.751,-0.489ZM0.597,-0.655L0.597,-0.74L0.697,-0.74L0.697,-0.655L0.597,-0.655ZM0.597,-0.608L0.697,-0.608L0.697,-0.489L0.597,-0.489L0.597,-0.608ZM0.178,0.082L0.243,0.082L0.239,-0.242L0.239,-0.406C0.268,-0.377 0.289,-0.348 0.311,-0.312L0.353,-0.35C0.328,-0.387 0.305,-0.412 0.267,-0.447L0.239,-0.424L0.239,-0.567L0.26,-0.567L0.352,-0.563L0.352,-0.623L0.26,-0.619L0.239,-0.619L0.239,-0.795C0.263,-0.8 0.272,-0.806 0.272,-0.817C0.272,-0.827 0.263,-0.834 0.174,-0.84C0.179,-0.816 0.182,-0.79 0.182,-0.761L0.182,-0.619L0.155,-0.619L0.047,-0.623L0.047,-0.563L0.155,-0.567L0.174,-0.567C0.153,-0.423 0.097,-0.279 0.03,-0.178C0.045,-0.164 0.057,-0.148 0.067,-0.13C0.13,-0.231 0.164,-0.317 0.187,-0.415L0.178,0.082ZM0.55,-0.319L0.741,-0.319L0.871,-0.315L0.871,-0.375L0.741,-0.372L0.55,-0.372L0.42,-0.376L0.42,-0.315L0.55,-0.319ZM0.736,-0.103C0.8,-0.07 0.851,-0.034 0.909,0.019L0.957,-0.026C0.891,-0.079 0.842,-0.11 0.779,-0.141L0.736,-0.103ZM0.678,-0.189L0.827,-0.189L0.957,-0.185L0.957,-0.244L0.827,-0.241L0.468,-0.241L0.338,-0.245L0.338,-0.185L0.468,-0.189L0.618,-0.189L0.618,-0.018C0.618,0.01 0.613,0.014 0.594,0.014C0.571,0.014 0.553,0.013 0.515,0.009C0.526,0.028 0.534,0.051 0.54,0.074L0.565,0.074C0.662,0.074 0.68,0.055 0.68,-0.012L0.678,-0.091L0.678,-0.189ZM0.441,-0.101C0.406,-0.068 0.363,-0.042 0.3,-0.016C0.316,-0.003 0.33,0.013 0.342,0.032C0.41,-0 0.465,-0.038 0.511,-0.085C0.536,-0.083 0.548,-0.086 0.548,-0.097C0.548,-0.106 0.537,-0.114 0.479,-0.143C0.469,-0.128 0.46,-0.118 0.441,-0.101Z" style="fill:rgb(53,53,53);fill-rule:nonzero;"></path></g><g transform="matrix(46.3514,0,0,46.3514,618.743,211.261)"><path d="M0.687,-0.314L0.687,-0.404L0.773,-0.404L0.893,-0.402L0.893,-0.453L0.773,-0.451L0.687,-0.451L0.687,-0.528L0.773,-0.528L0.893,-0.526L0.893,-0.577L0.773,-0.575L0.687,-0.575L0.687,-0.652L0.809,-0.652L0.929,-0.65L0.929,-0.702L0.809,-0.7L0.694,-0.7C0.708,-0.725 0.718,-0.747 0.729,-0.772C0.759,-0.775 0.769,-0.779 0.769,-0.791C0.769,-0.801 0.76,-0.808 0.682,-0.83C0.681,-0.819 0.678,-0.806 0.673,-0.791C0.664,-0.765 0.652,-0.732 0.636,-0.7L0.476,-0.7C0.491,-0.723 0.503,-0.746 0.514,-0.768C0.541,-0.771 0.555,-0.776 0.555,-0.786C0.555,-0.799 0.54,-0.805 0.47,-0.825C0.467,-0.812 0.46,-0.794 0.451,-0.776C0.413,-0.699 0.363,-0.622 0.283,-0.554C0.3,-0.544 0.315,-0.528 0.324,-0.514C0.351,-0.539 0.377,-0.567 0.401,-0.596L0.399,-0.519L0.399,-0.415L0.394,-0.266L0.399,-0.261L0.544,-0.265L0.795,-0.265L0.945,-0.261L0.945,-0.318L0.795,-0.314L0.687,-0.314ZM0.63,-0.314L0.459,-0.314L0.459,-0.404L0.63,-0.404L0.63,-0.314ZM0.459,-0.451L0.459,-0.528L0.63,-0.528L0.63,-0.451L0.459,-0.451ZM0.459,-0.575L0.459,-0.652L0.63,-0.652L0.63,-0.575L0.459,-0.575ZM0.462,-0.105L0.462,-0.065L0.458,0.083L0.526,0.083L0.522,-0.065L0.522,-0.105L0.81,-0.105L0.96,-0.101L0.96,-0.163L0.81,-0.159L0.522,-0.159L0.522,-0.205C0.543,-0.21 0.552,-0.215 0.552,-0.224C0.552,-0.234 0.542,-0.241 0.455,-0.247C0.46,-0.223 0.462,-0.201 0.462,-0.172L0.462,-0.159L0.19,-0.159L0.04,-0.163L0.04,-0.101L0.19,-0.105L0.462,-0.105ZM0.205,-0.589C0.174,-0.614 0.124,-0.645 0.091,-0.66L0.051,-0.617C0.081,-0.603 0.132,-0.568 0.165,-0.541L0.205,-0.589ZM0.083,-0.314C0.115,-0.261 0.123,-0.245 0.138,-0.245C0.147,-0.245 0.152,-0.255 0.151,-0.282C0.191,-0.328 0.234,-0.386 0.28,-0.46C0.266,-0.472 0.248,-0.489 0.235,-0.507C0.197,-0.438 0.153,-0.381 0.123,-0.349C0.106,-0.331 0.097,-0.324 0.083,-0.314ZM0.296,-0.74C0.265,-0.767 0.216,-0.796 0.183,-0.811L0.143,-0.768C0.173,-0.754 0.226,-0.72 0.255,-0.693L0.296,-0.74Z" style="fill:rgb(53,53,53);fill-rule:nonzero;"></path></g><g transform="matrix(46.3514,0,0,46.3514,665.094,211.261)"><path d="M0.658,-0.562C0.677,-0.565 0.68,-0.57 0.68,-0.577C0.68,-0.586 0.673,-0.591 0.598,-0.615C0.592,-0.596 0.585,-0.579 0.576,-0.565C0.509,-0.46 0.41,-0.358 0.292,-0.297C0.307,-0.282 0.321,-0.264 0.33,-0.248C0.445,-0.314 0.544,-0.409 0.622,-0.527C0.69,-0.423 0.801,-0.318 0.936,-0.256C0.947,-0.277 0.96,-0.302 0.973,-0.317C0.83,-0.369 0.725,-0.462 0.658,-0.562ZM0.169,-0.386C0.145,-0.381 0.12,-0.376 0.095,-0.371C0.072,-0.367 0.055,-0.363 0.027,-0.359C0.051,-0.286 0.059,-0.269 0.069,-0.269C0.082,-0.269 0.085,-0.277 0.089,-0.306C0.116,-0.313 0.143,-0.321 0.169,-0.329L0.169,-0.036C0.169,-0.013 0.164,-0.004 0.139,-0.004C0.117,-0.004 0.093,-0.005 0.055,-0.01C0.066,0.009 0.078,0.037 0.083,0.06L0.11,0.06C0.226,0.06 0.236,0.041 0.236,-0.039L0.232,-0.218L0.232,-0.347C0.267,-0.358 0.301,-0.368 0.334,-0.379C0.333,-0.396 0.333,-0.414 0.333,-0.432C0.296,-0.421 0.263,-0.411 0.232,-0.402L0.232,-0.584L0.239,-0.584L0.339,-0.58L0.339,-0.642L0.239,-0.638L0.232,-0.638L0.232,-0.797C0.257,-0.803 0.264,-0.81 0.264,-0.818C0.264,-0.828 0.25,-0.835 0.162,-0.84C0.167,-0.816 0.169,-0.792 0.169,-0.763L0.169,-0.638L0.133,-0.638L0.033,-0.642L0.033,-0.58L0.133,-0.584L0.169,-0.584L0.169,-0.386ZM0.475,-0.731L0.461,-0.731L0.321,-0.735L0.321,-0.675L0.461,-0.679L0.475,-0.679L0.475,-0.66L0.473,-0.56L0.537,-0.56L0.535,-0.66L0.535,-0.679L0.716,-0.679L0.716,-0.66L0.714,-0.56L0.778,-0.56L0.776,-0.66L0.776,-0.679L0.808,-0.679L0.948,-0.675L0.948,-0.735L0.808,-0.731L0.776,-0.731L0.776,-0.796C0.801,-0.802 0.808,-0.809 0.808,-0.817C0.808,-0.827 0.796,-0.834 0.709,-0.839C0.714,-0.815 0.716,-0.791 0.716,-0.762L0.716,-0.731L0.535,-0.731L0.535,-0.796C0.56,-0.802 0.567,-0.809 0.567,-0.817C0.567,-0.827 0.555,-0.834 0.468,-0.839C0.473,-0.815 0.475,-0.791 0.475,-0.762L0.475,-0.731ZM0.779,0.027L0.779,0.074L0.844,0.074L0.84,-0.048L0.84,-0.134L0.844,-0.22L0.84,-0.224L0.724,-0.22L0.531,-0.22L0.415,-0.224L0.411,-0.22L0.415,-0.134L0.415,-0.04L0.411,0.08L0.475,0.08L0.475,0.027L0.779,0.027ZM0.779,-0.025L0.475,-0.025L0.475,-0.168L0.779,-0.168L0.779,-0.025ZM0.573,-0.3L0.681,-0.3L0.771,-0.297L0.771,-0.356L0.681,-0.353L0.573,-0.353L0.483,-0.356L0.483,-0.297L0.573,-0.3Z" style="fill:rgb(53,53,53);fill-rule:nonzero;"></path></g><g transform="matrix(46.3514,0,0,46.3514,711.445,211.261)"><path d="M0.44,-0.138L0.539,-0.134L0.543,-0.138L0.539,-0.214L0.539,-0.289L0.543,-0.366L0.539,-0.369L0.44,-0.365L0.367,-0.365L0.367,-0.421L0.463,-0.421L0.583,-0.417L0.583,-0.47L0.463,-0.466L0.367,-0.466L0.367,-0.496C0.388,-0.501 0.397,-0.507 0.397,-0.515C0.397,-0.524 0.381,-0.529 0.303,-0.535C0.308,-0.514 0.31,-0.493 0.31,-0.466L0.196,-0.466L0.086,-0.47L0.086,-0.417L0.196,-0.421L0.31,-0.421L0.31,-0.365L0.24,-0.365L0.141,-0.369L0.137,-0.366L0.141,-0.289L0.141,-0.214L0.137,-0.137L0.141,-0.134L0.239,-0.138L0.31,-0.138L0.31,-0.077L0.165,-0.077L0.055,-0.081L0.055,-0.026L0.165,-0.03L0.309,-0.03L0.306,0.083L0.371,0.083L0.368,-0.03L0.462,-0.03L0.582,-0.026L0.582,-0.081L0.462,-0.077L0.367,-0.077L0.367,-0.138L0.44,-0.138ZM0.485,-0.181L0.367,-0.181L0.367,-0.233L0.485,-0.233L0.485,-0.181ZM0.31,-0.181L0.195,-0.181L0.195,-0.233L0.31,-0.233L0.31,-0.181ZM0.367,-0.322L0.485,-0.322L0.485,-0.273L0.367,-0.273L0.367,-0.322ZM0.31,-0.322L0.31,-0.273L0.195,-0.273L0.195,-0.322L0.31,-0.322ZM0.769,-0.757C0.802,-0.733 0.832,-0.704 0.853,-0.676L0.897,-0.713C0.872,-0.742 0.839,-0.768 0.81,-0.788L0.769,-0.757ZM0.31,-0.604L0.193,-0.604L0.043,-0.608L0.043,-0.549L0.193,-0.553L0.639,-0.553C0.64,-0.477 0.647,-0.401 0.658,-0.325C0.668,-0.261 0.682,-0.196 0.706,-0.135C0.662,-0.07 0.604,-0.015 0.525,0.032C0.544,0.049 0.556,0.063 0.564,0.08C0.634,0.029 0.689,-0.021 0.732,-0.077C0.742,-0.057 0.753,-0.038 0.765,-0.02C0.818,0.06 0.86,0.08 0.883,0.08C0.923,0.08 0.955,0.057 0.965,-0.086C0.951,-0.091 0.929,-0.103 0.909,-0.115C0.908,-0.031 0.898,0.006 0.882,0.006C0.866,0.006 0.845,-0.009 0.802,-0.076C0.79,-0.094 0.78,-0.113 0.77,-0.133C0.816,-0.211 0.846,-0.3 0.869,-0.414C0.894,-0.415 0.903,-0.418 0.903,-0.43C0.903,-0.44 0.891,-0.447 0.818,-0.474C0.816,-0.451 0.812,-0.428 0.807,-0.403C0.791,-0.326 0.771,-0.26 0.743,-0.202C0.733,-0.235 0.725,-0.269 0.72,-0.303C0.706,-0.385 0.7,-0.469 0.698,-0.553L0.806,-0.553L0.956,-0.549L0.956,-0.608L0.806,-0.604L0.697,-0.604C0.696,-0.638 0.696,-0.674 0.696,-0.712L0.696,-0.782C0.718,-0.791 0.729,-0.797 0.729,-0.806C0.729,-0.817 0.718,-0.824 0.629,-0.831C0.634,-0.807 0.637,-0.778 0.637,-0.709C0.637,-0.672 0.637,-0.637 0.638,-0.604L0.368,-0.604L0.368,-0.686L0.443,-0.686L0.563,-0.682L0.563,-0.737L0.443,-0.733L0.368,-0.733L0.368,-0.793C0.393,-0.801 0.398,-0.805 0.398,-0.814C0.398,-0.824 0.392,-0.829 0.303,-0.836C0.308,-0.812 0.31,-0.788 0.31,-0.759L0.31,-0.733L0.241,-0.733L0.121,-0.737L0.121,-0.682L0.238,-0.686L0.31,-0.686L0.31,-0.604Z" style="fill:rgb(53,53,53);fill-rule:nonzero;"></path></g><g transform="matrix(46.3514,0,0,46.3514,757.797,211.261)"><path d="M0.818,-0.674L0.812,-0.679L0.667,-0.675L0.328,-0.675L0.177,-0.679L0.177,-0.606L0.328,-0.61L0.736,-0.61C0.732,-0.312 0.52,-0.104 0.246,-0.06C0.262,-0.04 0.274,-0.019 0.283,0.003C0.586,-0.047 0.805,-0.282 0.816,-0.613L0.818,-0.674Z" style="fill:rgb(53,53,53);fill-rule:nonzero;"></path></g><g transform="matrix(46.3514,0,0,46.3514,799.976,211.261)"><path d="M0.539,-0.048C0.539,-0.031 0.534,-0.025 0.52,-0.025C0.499,-0.025 0.468,-0.031 0.417,-0.045C0.417,-0.024 0.416,-0.004 0.413,0.016C0.472,0.033 0.505,0.039 0.534,0.039C0.581,0.039 0.605,0.016 0.606,-0.029C0.606,-0.052 0.605,-0.075 0.604,-0.098L0.596,-0.379L0.677,-0.379L0.803,-0.377L0.803,-0.441L0.677,-0.437L0.595,-0.437L0.592,-0.538L0.596,-0.585C0.551,-0.592 0.524,-0.596 0.512,-0.596C0.503,-0.596 0.496,-0.593 0.496,-0.585C0.496,-0.578 0.508,-0.569 0.525,-0.562L0.528,-0.437L0.316,-0.437L0.191,-0.441L0.191,-0.377L0.316,-0.379L0.482,-0.379C0.378,-0.237 0.278,-0.155 0.14,-0.079C0.155,-0.065 0.169,-0.048 0.182,-0.029C0.328,-0.116 0.434,-0.206 0.531,-0.343L0.539,-0.048Z" style="fill:rgb(53,53,53);fill-rule:nonzero;"></path></g><g transform="matrix(46.3514,0,0,46.3514,843.083,211.261)"><path d="M0.16,-0.624C0.26,-0.582 0.339,-0.539 0.424,-0.483L0.466,-0.55C0.379,-0.603 0.297,-0.644 0.199,-0.685L0.16,-0.624ZM0.271,-0.028C0.532,-0.12 0.74,-0.248 0.871,-0.569C0.85,-0.585 0.83,-0.6 0.809,-0.621C0.688,-0.31 0.472,-0.168 0.229,-0.096C0.212,-0.111 0.202,-0.118 0.196,-0.118C0.189,-0.118 0.184,-0.113 0.184,-0.105C0.184,-0.095 0.194,-0.07 0.217,-0.009L0.271,-0.028Z" style="fill:rgb(53,53,53);fill-rule:nonzero;"></path></g><g transform="matrix(46.3514,0,0,46.3514,884.336,211.261)"><path d="M0.364,-0.136L0.36,0.016L0.442,0.016L0.438,-0.136L0.438,-0.701L0.445,-0.749C0.398,-0.761 0.365,-0.768 0.348,-0.768C0.336,-0.768 0.331,-0.765 0.331,-0.761C0.331,-0.752 0.335,-0.748 0.364,-0.728L0.364,-0.136ZM0.791,-0.353C0.697,-0.407 0.594,-0.454 0.481,-0.485L0.441,-0.426C0.556,-0.391 0.656,-0.344 0.751,-0.287L0.791,-0.353Z" style="fill:rgb(53,53,53);fill-rule:nonzero;"></path></g><g transform="matrix(46.3514,0,0,46.3514,928.37,211.261)"><path d="M0.217,-0.353L0.785,-0.353L0.935,-0.349L0.935,-0.423L0.785,-0.419L0.217,-0.419L0.067,-0.423L0.067,-0.349L0.217,-0.353Z" style="fill:rgb(53,53,53);fill-rule:nonzero;"></path></g><g transform="matrix(46.3514,0,0,46.3514,975.185,211.261)"><path d="M0.32,-0.411L0.204,-0.415L0.2,-0.411L0.204,-0.295L0.204,-0.194L0.2,-0.081L0.205,-0.074L0.32,-0.078L0.356,-0.078C0.316,0.011 0.185,0.025 0.034,0.029C0.049,0.045 0.059,0.064 0.067,0.083C0.253,0.072 0.38,0.038 0.424,-0.078L0.543,-0.078L0.543,-0.018C0.543,0.06 0.559,0.07 0.755,0.07C0.944,0.07 0.962,0.046 0.967,-0.062C0.948,-0.068 0.924,-0.08 0.907,-0.091C0.907,0.009 0.898,0.014 0.751,0.014C0.608,0.014 0.604,0.008 0.604,-0.02L0.604,-0.078L0.678,-0.078L0.794,-0.074L0.798,-0.08L0.794,-0.194L0.794,-0.295L0.798,-0.411L0.794,-0.415L0.678,-0.411L0.32,-0.411ZM0.264,-0.365L0.734,-0.365L0.734,-0.316L0.264,-0.316L0.264,-0.365ZM0.264,-0.272L0.734,-0.272L0.734,-0.221L0.264,-0.221L0.264,-0.272ZM0.264,-0.177L0.734,-0.177L0.734,-0.124L0.264,-0.124L0.264,-0.177ZM0.343,-0.706L0.343,-0.762L0.4,-0.762L0.52,-0.758L0.52,-0.812L0.4,-0.808L0.216,-0.808L0.1,-0.812L0.096,-0.808L0.1,-0.699L0.1,-0.567L0.096,-0.462L0.101,-0.455L0.216,-0.459L0.392,-0.459L0.512,-0.455L0.512,-0.509L0.392,-0.505L0.343,-0.505L0.343,-0.564L0.422,-0.564L0.498,-0.56L0.502,-0.564L0.5,-0.637L0.5,-0.643L0.502,-0.706L0.498,-0.71L0.418,-0.706L0.343,-0.706ZM0.286,-0.706L0.157,-0.706L0.157,-0.762L0.286,-0.762L0.286,-0.706ZM0.286,-0.564L0.286,-0.505L0.157,-0.505L0.157,-0.564L0.286,-0.564ZM0.157,-0.662L0.447,-0.662L0.447,-0.608L0.157,-0.608L0.157,-0.662ZM0.689,-0.499L0.801,-0.499L0.911,-0.497L0.911,-0.552L0.801,-0.55L0.689,-0.55L0.579,-0.552L0.579,-0.497L0.689,-0.499ZM0.66,-0.73C0.67,-0.746 0.678,-0.763 0.686,-0.78C0.719,-0.781 0.726,-0.786 0.727,-0.796C0.728,-0.808 0.713,-0.816 0.641,-0.84C0.636,-0.821 0.631,-0.807 0.621,-0.786C0.605,-0.752 0.569,-0.69 0.508,-0.634C0.523,-0.626 0.538,-0.614 0.553,-0.597C0.582,-0.625 0.607,-0.652 0.627,-0.679L0.831,-0.679L0.961,-0.675L0.961,-0.734L0.831,-0.73L0.66,-0.73Z" style="fill:rgb(53,53,53);fill-rule:nonzero;"></path></g></g><g transform="matrix(0.673102,0,0,0.768706,1169.28,375.208)"><g transform="matrix(0.58,0,0,0.58,40,14)"><g transform="matrix(2.06186,0,0,2.06186,-51.3621,-152.271)"><circle cx="49.161" cy="98.101" r="24.25" style="fill:rgb(36,150,211);"></circle></g><g transform="matrix(0.280038,0,0,0.280038,-1108.62,-1461.03)"><path d="M4036.6,5339.22C4036.57,5338.23 4036.58,5337.23 4036.63,5336.22C4038.32,5300.08 4063.04,5266.17 4097.95,5253.85C4107.85,5250.36 4118.4,5248.62 4128.83,5248.64C4161.97,5248.83 4194.49,5268.09 4210.19,5298.26C4224.97,5326.66 4223.56,5362.8 4206.06,5390.15C4198.02,5402.72 4186.77,5413.35 4173.92,5420.66C4173.55,5420.87 4173.18,5421.06 4172.79,5421.24C4171.57,5422.11 4170.35,5422.96 4169.22,5423.85C4155.72,5434.54 4150.78,5454.79 4158.25,5470.53C4166.52,5487.94 4188.92,5497.64 4208.03,5489.55C4225.49,5482.17 4235.66,5460.87 4229.7,5442.19C4229.7,5442.19 4228.44,5437.16 4229.47,5433.25C4231.95,5423.82 4244.36,5418.32 4253.18,5423.61C4257.82,5426.4 4260.16,5431.64 4261.55,5437.29C4266.64,5458.09 4261.62,5481.14 4248.25,5497.93C4228.63,5522.59 4191.75,5531.71 4162.5,5517.61C4141.32,5507.4 4125.9,5485.99 4123.07,5462.59C4119.84,5435.82 4133.36,5407.9 4156.6,5393.74C4156.66,5393.69 4156.73,5393.65 4156.8,5393.61C4164.55,5388.61 4172.08,5382.9 4177.45,5375.35C4189.08,5359.01 4191.74,5336.68 4184.09,5317.98C4172.56,5289.76 4137.61,5272.75 4106.88,5284.66C4084.6,5293.3 4068.62,5316.16 4068.52,5340.44C4068.52,5340.44 4068.52,5340.47 4068.52,5340.53L4068.52,5340.77L4068.52,5488C4068.52,5488.1 4068.51,5488.2 4068.51,5488.29C4068.53,5488.43 4068.55,5488.56 4068.56,5488.7C4069.13,5492.81 4077.51,5494.31 4077.52,5488.04L4077.52,5488.03L4077.52,5488L4077.52,5340.77C4077.56,5339.53 4077.62,5338.73 4077.71,5338.12C4077.73,5334.18 4078.46,5330.03 4079.64,5326.08C4085.79,5305.42 4105.65,5289.86 4128.19,5289.64C4128.52,5289.64 4128.52,5289.64 4128.86,5289.64C4148.51,5289.83 4167.31,5302.05 4175.26,5320.21C4181.85,5335.27 4180.6,5353.49 4171.83,5367.57C4167.03,5375.28 4160.26,5381.86 4152.07,5385.87C4142.21,5390.7 4128.08,5382.41 4129.08,5370.2C4129.54,5364.6 4133.41,5359.85 4138.29,5356.93C4145.79,5352.37 4149.52,5342.4 4146.29,5333.89C4142.59,5324.13 4129.97,5318.85 4120.3,5323.51C4113.91,5326.58 4109.54,5333.36 4109.52,5340.67L4109.52,5340.7L4109.52,5340.77L4109.52,5488C4109.52,5488.09 4109.52,5488.17 4109.51,5488.26C4109.52,5488.51 4109.52,5488.76 4109.51,5489.01C4109.1,5505.07 4096.77,5520.15 4081.04,5523.69C4065.01,5527.29 4047.18,5519.23 4039.85,5503.31C4037.91,5499.09 4036.68,5494.31 4036.62,5489.77C4036.54,5489.04 4036.55,5488.8 4036.52,5488L4036.52,5340.77C4036.54,5340.05 4036.54,5339.78 4036.6,5339.22ZM4220.9,5389.66C4230.83,5389.66 4238.9,5397.73 4238.9,5407.66C4238.9,5417.6 4230.83,5425.66 4220.9,5425.66C4210.96,5425.66 4202.9,5417.6 4202.9,5407.66C4202.9,5397.73 4210.96,5389.66 4220.9,5389.66Z" style="fill:white;fill-rule:nonzero;"></path></g></g><g transform="matrix(1.24431,0,0,1.24431,-58.0289,-7.12995)"><g transform="matrix(43.3976,0,0,43.3976,127.77,52.5584)"><path d="M0.288,-0.394C0.276,-0.394 0.264,-0.391 0.252,-0.385C0.24,-0.379 0.229,-0.371 0.22,-0.361C0.211,-0.35 0.203,-0.338 0.197,-0.323C0.191,-0.308 0.188,-0.292 0.188,-0.274L0.188,-0L0.074,-0L0.074,-0.252C0.074,-0.292 0.071,-0.325 0.066,-0.353C0.061,-0.38 0.055,-0.401 0.049,-0.418C0.042,-0.437 0.034,-0.453 0.025,-0.465L0.115,-0.501C0.121,-0.494 0.127,-0.485 0.134,-0.474C0.139,-0.465 0.145,-0.454 0.15,-0.441C0.155,-0.428 0.16,-0.413 0.163,-0.396C0.176,-0.435 0.196,-0.463 0.221,-0.48C0.246,-0.497 0.275,-0.505 0.307,-0.505C0.322,-0.505 0.337,-0.503 0.35,-0.5C0.363,-0.496 0.37,-0.494 0.369,-0.494L0.337,-0.383C0.338,-0.383 0.334,-0.385 0.326,-0.389C0.317,-0.392 0.305,-0.394 0.288,-0.394Z" style="fill:rgb(136,136,136);fill-rule:nonzero;"></path></g><g transform="matrix(43.3976,0,0,43.3976,142.915,52.5584)"><path d="M0.17,0.004C0.135,0.004 0.108,-0.007 0.089,-0.028C0.07,-0.049 0.061,-0.076 0.061,-0.109L0.061,-0.498L0.175,-0.498L0.175,-0.119C0.175,-0.104 0.177,-0.093 0.182,-0.088C0.187,-0.083 0.194,-0.08 0.203,-0.08L0.212,-0.08C0.215,-0.08 0.217,-0.08 0.22,-0.081C0.223,-0.081 0.226,-0.081 0.229,-0.082L0.241,-0.01C0.236,-0.007 0.23,-0.005 0.223,-0.003C0.217,-0.001 0.21,0.001 0.201,0.002C0.192,0.003 0.181,0.004 0.17,0.004ZM0.12,-0.72C0.141,-0.72 0.158,-0.714 0.169,-0.701C0.18,-0.688 0.186,-0.672 0.186,-0.652C0.186,-0.632 0.18,-0.615 0.169,-0.602C0.157,-0.589 0.14,-0.582 0.117,-0.582C0.096,-0.582 0.079,-0.588 0.068,-0.602C0.056,-0.615 0.05,-0.63 0.05,-0.649C0.05,-0.67 0.056,-0.687 0.068,-0.7C0.079,-0.713 0.097,-0.72 0.12,-0.72Z" style="fill:rgb(136,136,136);fill-rule:nonzero;"></path></g><g transform="matrix(43.3976,0,0,43.3976,151.855,52.5584)"><path d="M0.469,-0.498L0.471,-0.49C0.472,-0.484 0.473,-0.476 0.474,-0.467C0.475,-0.457 0.476,-0.446 0.478,-0.434C0.479,-0.421 0.479,-0.409 0.479,-0.396C0.479,-0.322 0.474,-0.26 0.463,-0.209C0.452,-0.158 0.435,-0.116 0.413,-0.085C0.39,-0.053 0.362,-0.03 0.328,-0.016C0.293,-0.002 0.253,0.005 0.206,0.005C0.153,0.005 0.116,-0.01 0.094,-0.041C0.071,-0.071 0.06,-0.113 0.06,-0.166L0.06,-0.498L0.174,-0.498L0.174,-0.169C0.174,-0.141 0.179,-0.118 0.189,-0.101C0.199,-0.084 0.216,-0.075 0.24,-0.075C0.264,-0.075 0.284,-0.084 0.3,-0.102C0.316,-0.12 0.329,-0.143 0.338,-0.173C0.347,-0.202 0.354,-0.235 0.358,-0.272C0.362,-0.309 0.364,-0.346 0.364,-0.384C0.364,-0.398 0.364,-0.412 0.363,-0.426C0.362,-0.439 0.36,-0.451 0.359,-0.462C0.357,-0.473 0.356,-0.481 0.355,-0.488L0.353,-0.498L0.469,-0.498Z" style="fill:rgb(136,136,136);fill-rule:nonzero;"></path></g><g transform="matrix(43.3976,0,0,43.3976,172.426,52.5584)"><path d="M0.035,-0.237C0.035,-0.282 0.041,-0.321 0.054,-0.355C0.066,-0.389 0.083,-0.418 0.105,-0.441C0.126,-0.464 0.152,-0.481 0.181,-0.493C0.21,-0.504 0.242,-0.51 0.276,-0.51C0.306,-0.51 0.331,-0.506 0.353,-0.499C0.374,-0.492 0.391,-0.482 0.404,-0.469C0.417,-0.456 0.427,-0.441 0.434,-0.424C0.44,-0.407 0.443,-0.388 0.443,-0.368C0.443,-0.344 0.436,-0.321 0.423,-0.3C0.41,-0.278 0.391,-0.259 0.366,-0.243C0.341,-0.226 0.31,-0.213 0.275,-0.204C0.24,-0.194 0.2,-0.189 0.156,-0.188C0.158,-0.173 0.161,-0.158 0.166,-0.145C0.17,-0.131 0.176,-0.119 0.185,-0.109C0.193,-0.098 0.204,-0.09 0.217,-0.084C0.23,-0.078 0.247,-0.075 0.267,-0.075C0.282,-0.075 0.297,-0.077 0.314,-0.08C0.331,-0.083 0.346,-0.087 0.36,-0.092C0.377,-0.097 0.393,-0.103 0.409,-0.11L0.439,-0.039C0.422,-0.03 0.403,-0.023 0.383,-0.016C0.366,-0.01 0.346,-0.005 0.323,-0C0.3,0.005 0.276,0.007 0.251,0.007C0.212,0.007 0.179,0.001 0.152,-0.011C0.125,-0.022 0.102,-0.039 0.085,-0.06C0.068,-0.081 0.055,-0.107 0.047,-0.137C0.039,-0.167 0.035,-0.2 0.035,-0.237ZM0.267,-0.432C0.245,-0.432 0.227,-0.427 0.213,-0.417C0.198,-0.406 0.187,-0.393 0.178,-0.377C0.169,-0.36 0.163,-0.342 0.16,-0.322C0.156,-0.301 0.154,-0.281 0.153,-0.26C0.185,-0.261 0.212,-0.266 0.235,-0.273C0.257,-0.28 0.275,-0.288 0.289,-0.299C0.303,-0.309 0.313,-0.32 0.32,-0.332C0.326,-0.344 0.329,-0.356 0.329,-0.368C0.329,-0.387 0.323,-0.403 0.312,-0.415C0.301,-0.426 0.286,-0.432 0.267,-0.432Z" style="fill:rgb(136,136,136);fill-rule:nonzero;"></path></g><g transform="matrix(43.3976,0,0,43.3976,191.217,52.5584)"><path d="M0.288,-0.394C0.276,-0.394 0.264,-0.391 0.252,-0.385C0.24,-0.379 0.229,-0.371 0.22,-0.361C0.211,-0.35 0.203,-0.338 0.197,-0.323C0.191,-0.308 0.188,-0.292 0.188,-0.274L0.188,-0L0.074,-0L0.074,-0.252C0.074,-0.292 0.071,-0.325 0.066,-0.353C0.061,-0.38 0.055,-0.401 0.049,-0.418C0.042,-0.437 0.034,-0.453 0.025,-0.465L0.115,-0.501C0.121,-0.494 0.127,-0.485 0.134,-0.474C0.139,-0.465 0.145,-0.454 0.15,-0.441C0.155,-0.428 0.16,-0.413 0.163,-0.396C0.176,-0.435 0.196,-0.463 0.221,-0.48C0.246,-0.497 0.275,-0.505 0.307,-0.505C0.322,-0.505 0.337,-0.503 0.35,-0.5C0.363,-0.496 0.37,-0.494 0.369,-0.494L0.337,-0.383C0.338,-0.383 0.334,-0.385 0.326,-0.389C0.317,-0.392 0.305,-0.394 0.288,-0.394Z" style="fill:rgb(136,136,136);fill-rule:nonzero;"></path></g></g></g><g transform="matrix(1.07584,0,0,1.22864,-98.5598,-74.9282)"><g transform="matrix(1.29337,0,0,1.1076,267.954,-27.5456)"><rect x="566" y="256" width="392" height="35" style="fill:rgb(36,150,211);"></rect></g><g transform="matrix(1,0,0,1,548.934,-55.6012)"><g transform="matrix(23.8378,0,0,23.8378,601.289,340.066)"><path d="M0.615,-0.761L0.532,-0.761L0.532,-0.436L0.168,-0.436L0.168,-0.761L0.085,-0.761L0.085,-0L0.168,-0L0.168,-0.364L0.532,-0.364L0.532,-0L0.615,-0L0.615,-0.761Z" style="fill:white;fill-rule:nonzero;"></path></g><g transform="matrix(23.8378,0,0,23.8378,618.452,340.066)"><path d="M0.531,-0.761L-0.001,-0.761L-0.001,-0.691L0.223,-0.691L0.223,-0L0.306,-0L0.306,-0.691L0.531,-0.691L0.531,-0.761Z" style="fill:white;fill-rule:nonzero;"></path></g><g transform="matrix(23.8378,0,0,23.8378,631.539,340.066)"><path d="M0.756,-0.762L0.652,-0.762L0.513,-0.375C0.479,-0.277 0.453,-0.197 0.434,-0.12L0.431,-0.12C0.411,-0.199 0.386,-0.28 0.354,-0.375L0.22,-0.762L0.118,-0.762L0.065,-0L0.144,-0L0.165,-0.335C0.172,-0.452 0.178,-0.578 0.18,-0.671L0.183,-0.671C0.204,-0.583 0.233,-0.487 0.27,-0.377L0.397,-0.003L0.458,-0.003L0.594,-0.385C0.631,-0.491 0.662,-0.585 0.687,-0.671L0.69,-0.671C0.689,-0.593 0.697,-0.452 0.703,-0.343L0.722,-0L0.804,-0L0.756,-0.762Z" style="fill:white;fill-rule:nonzero;"></path></g><g transform="matrix(23.8378,0,0,23.8378,652.707,340.066)"><path d="M0.483,-0.071L0.168,-0.071L0.168,-0.762L0.085,-0.762L0.085,-0L0.483,-0L0.483,-0.071Z" style="fill:white;fill-rule:nonzero;"></path></g><g transform="matrix(23.8378,0,0,23.8378,671.277,340.066)"><path d="M0.553,-0.411C0.539,-0.317 0.517,-0.239 0.482,-0.182C0.428,-0.244 0.353,-0.332 0.29,-0.408L0.29,-0.412C0.41,-0.474 0.456,-0.536 0.456,-0.616C0.456,-0.715 0.386,-0.774 0.299,-0.774C0.181,-0.774 0.117,-0.682 0.117,-0.59C0.117,-0.535 0.141,-0.479 0.18,-0.427L0.18,-0.424C0.094,-0.373 0.035,-0.301 0.035,-0.2C0.035,-0.086 0.118,0.012 0.258,0.012C0.338,0.012 0.409,-0.014 0.475,-0.077C0.506,-0.044 0.526,-0.023 0.547,-0L0.647,-0C0.6,-0.052 0.563,-0.092 0.526,-0.132C0.581,-0.199 0.611,-0.295 0.63,-0.411L0.553,-0.411ZM0.272,-0.052C0.18,-0.052 0.116,-0.122 0.116,-0.212C0.116,-0.297 0.175,-0.348 0.218,-0.376C0.3,-0.278 0.385,-0.182 0.433,-0.126C0.393,-0.079 0.334,-0.052 0.272,-0.052ZM0.291,-0.714C0.355,-0.714 0.381,-0.661 0.381,-0.611C0.381,-0.544 0.33,-0.5 0.251,-0.455C0.22,-0.497 0.194,-0.541 0.194,-0.598C0.194,-0.656 0.225,-0.714 0.291,-0.714Z" style="fill:white;fill-rule:nonzero;"></path></g><g transform="matrix(23.8378,0,0,23.8378,693.303,340.066)"><path d="M0.567,-0.09C0.529,-0.072 0.472,-0.059 0.414,-0.059C0.236,-0.059 0.128,-0.177 0.128,-0.377C0.128,-0.587 0.246,-0.703 0.419,-0.703C0.479,-0.703 0.528,-0.689 0.563,-0.672L0.585,-0.742C0.561,-0.754 0.508,-0.773 0.417,-0.773C0.194,-0.773 0.041,-0.62 0.041,-0.374C0.041,-0.116 0.199,0.011 0.395,0.011C0.482,0.011 0.55,-0.006 0.585,-0.023L0.567,-0.09Z" style="fill:white;fill-rule:nonzero;"></path></g><g transform="matrix(23.8378,0,0,23.8378,708.583,340.066)"><path d="M0.45,-0.737C0.421,-0.755 0.366,-0.773 0.294,-0.773C0.155,-0.773 0.061,-0.688 0.061,-0.572C0.061,-0.467 0.139,-0.4 0.254,-0.357C0.353,-0.317 0.394,-0.271 0.394,-0.196C0.394,-0.114 0.334,-0.059 0.232,-0.059C0.17,-0.059 0.109,-0.079 0.068,-0.106L0.045,-0.037C0.083,-0.01 0.158,0.011 0.227,0.011C0.391,0.011 0.479,-0.082 0.479,-0.203C0.479,-0.312 0.416,-0.375 0.293,-0.427C0.191,-0.47 0.145,-0.508 0.145,-0.583C0.145,-0.638 0.185,-0.703 0.291,-0.703C0.355,-0.703 0.403,-0.682 0.425,-0.668L0.45,-0.737Z" style="fill:white;fill-rule:nonzero;"></path></g><g transform="matrix(23.8378,0,0,23.8378,721.622,340.066)"><path d="M0.45,-0.737C0.421,-0.755 0.366,-0.773 0.294,-0.773C0.155,-0.773 0.061,-0.688 0.061,-0.572C0.061,-0.467 0.139,-0.4 0.254,-0.357C0.353,-0.317 0.394,-0.271 0.394,-0.196C0.394,-0.114 0.334,-0.059 0.232,-0.059C0.17,-0.059 0.109,-0.079 0.068,-0.106L0.045,-0.037C0.083,-0.01 0.158,0.011 0.227,0.011C0.391,0.011 0.479,-0.082 0.479,-0.203C0.479,-0.312 0.416,-0.375 0.293,-0.427C0.191,-0.47 0.145,-0.508 0.145,-0.583C0.145,-0.638 0.185,-0.703 0.291,-0.703C0.355,-0.703 0.403,-0.682 0.425,-0.668L0.45,-0.737Z" style="fill:white;fill-rule:nonzero;"></path></g><g transform="matrix(23.8378,0,0,23.8378,740.693,340.066)"><path d="M0.378,-0.411C0.456,-0.439 0.507,-0.504 0.507,-0.579C0.507,-0.636 0.486,-0.68 0.45,-0.711C0.405,-0.749 0.343,-0.767 0.249,-0.767C0.187,-0.767 0.127,-0.76 0.085,-0.751L0.085,-0.002C0.116,0.001 0.163,0.006 0.226,0.006C0.341,0.006 0.423,-0.016 0.474,-0.066C0.509,-0.1 0.535,-0.148 0.535,-0.216C0.535,-0.331 0.45,-0.391 0.378,-0.408L0.378,-0.411ZM0.168,-0.436L0.168,-0.695C0.183,-0.699 0.209,-0.702 0.253,-0.702C0.357,-0.702 0.423,-0.663 0.423,-0.573L0.423,-0.572C0.423,-0.494 0.358,-0.436 0.257,-0.436L0.168,-0.436ZM0.168,-0.372L0.248,-0.372C0.349,-0.372 0.448,-0.33 0.448,-0.216C0.448,-0.101 0.354,-0.06 0.249,-0.06C0.214,-0.06 0.187,-0.061 0.168,-0.065L0.168,-0.372Z" style="fill:white;fill-rule:nonzero;"></path></g><g transform="matrix(23.8378,0,0,23.8378,754.995,340.066)"><path d="M0.439,-0.341C0.439,-0.449 0.399,-0.558 0.245,-0.558C0.184,-0.558 0.123,-0.541 0.079,-0.512L0.099,-0.455C0.136,-0.481 0.185,-0.494 0.232,-0.494C0.356,-0.494 0.356,-0.39 0.356,-0.344C0.154,-0.345 0.04,-0.274 0.04,-0.143C0.04,-0.064 0.095,0.012 0.199,0.012C0.276,0.012 0.332,-0.027 0.36,-0.07L0.363,-0.07L0.371,-0L0.447,-0C0.44,-0.038 0.439,-0.085 0.439,-0.13L0.439,-0.341ZM0.357,-0.18C0.357,-0.114 0.3,-0.052 0.219,-0.052C0.169,-0.052 0.125,-0.083 0.125,-0.153C0.125,-0.268 0.254,-0.283 0.357,-0.283L0.357,-0.18Z" style="fill:white;fill-rule:nonzero;"></path></g><g transform="matrix(23.8378,0,0,23.8378,767.796,340.066)"><path d="M0.361,-0.525C0.332,-0.543 0.288,-0.558 0.236,-0.558C0.126,-0.558 0.058,-0.488 0.058,-0.403C0.058,-0.337 0.105,-0.286 0.197,-0.249C0.269,-0.22 0.298,-0.192 0.298,-0.141C0.298,-0.092 0.262,-0.053 0.189,-0.053C0.142,-0.053 0.095,-0.073 0.066,-0.09L0.043,-0.026C0.08,-0.004 0.132,0.011 0.186,0.011C0.305,0.011 0.379,-0.053 0.379,-0.15C0.379,-0.232 0.328,-0.278 0.24,-0.314C0.17,-0.344 0.139,-0.366 0.139,-0.413C0.139,-0.457 0.171,-0.494 0.231,-0.494C0.28,-0.494 0.317,-0.475 0.337,-0.462L0.361,-0.525Z" style="fill:white;fill-rule:nonzero;"></path></g><g transform="matrix(23.8378,0,0,23.8378,778.38,340.066)"><path d="M0.178,-0.698C0.178,-0.729 0.157,-0.754 0.124,-0.754C0.092,-0.754 0.069,-0.729 0.069,-0.698C0.069,-0.666 0.091,-0.641 0.123,-0.641C0.155,-0.641 0.178,-0.663 0.178,-0.698ZM0.165,-0.545L0.082,-0.545L0.082,-0L0.165,-0L0.165,-0.545Z" style="fill:white;fill-rule:nonzero;"></path></g><g transform="matrix(23.8378,0,0,23.8378,784.769,340.066)"><path d="M0.435,-0.084C0.408,-0.072 0.371,-0.057 0.317,-0.057C0.207,-0.057 0.128,-0.14 0.128,-0.272C0.128,-0.389 0.194,-0.49 0.32,-0.49C0.373,-0.49 0.409,-0.475 0.432,-0.462L0.453,-0.529C0.432,-0.54 0.383,-0.558 0.322,-0.558C0.154,-0.558 0.043,-0.435 0.043,-0.267C0.043,-0.1 0.146,0.011 0.302,0.011C0.372,0.011 0.426,-0.008 0.45,-0.02L0.435,-0.084Z" style="fill:white;fill-rule:nonzero;"></path></g><g transform="matrix(23.8378,0,0,23.8378,796.783,340.066)"><path d="M0.361,-0.525C0.332,-0.543 0.288,-0.558 0.236,-0.558C0.126,-0.558 0.058,-0.488 0.058,-0.403C0.058,-0.337 0.105,-0.286 0.197,-0.249C0.269,-0.22 0.298,-0.192 0.298,-0.141C0.298,-0.092 0.262,-0.053 0.189,-0.053C0.142,-0.053 0.095,-0.073 0.066,-0.09L0.043,-0.026C0.08,-0.004 0.132,0.011 0.186,0.011C0.305,0.011 0.379,-0.053 0.379,-0.15C0.379,-0.232 0.328,-0.278 0.24,-0.314C0.17,-0.344 0.139,-0.366 0.139,-0.413C0.139,-0.457 0.171,-0.494 0.231,-0.494C0.28,-0.494 0.317,-0.475 0.337,-0.462L0.361,-0.525Z" style="fill:white;fill-rule:nonzero;"></path></g></g></g></g></g></g></svg> 